<svg xmlns="http://www.w3.org/2000/svg" xmlns:xlink="http://www.w3.org/1999/xlink" viewBox="0 0 145.1 143.94"><defs><style>.cls-1,.cls-12,.cls-13,.cls-2,.cls-5{fill:none;}.cls-13,.cls-2,.cls-5{stroke:#000;}.cls-12,.cls-2,.cls-5{stroke-miterlimit:10;}.cls-2{stroke-width:0.76px;}.cls-3{clip-path:url(#clip-path);}.cls-4{fill:#fff;}.cls-12,.cls-5{stroke-width:0.73px;}.cls-17,.cls-6{font-size:8.72px;}.cls-16,.cls-17,.cls-18,.cls-6,.cls-9{font-family:Avenir-Light, Avenir;}.cls-7{fill:#ffe4ce;}.cls-15,.cls-8{fill:#e9fdcb;}.cls-10,.cls-8{fill-rule:evenodd;}.cls-9{font-size:7.24px;}.cls-10,.cls-14{fill:#e3feff;}.cls-11{fill:#d9cbff;}.cls-12{stroke:#fff;}.cls-13{stroke-linecap:round;stroke-linejoin:round;stroke-width:0.36px;stroke-dasharray:2.18 2.18;}.cls-16{font-size:4.65px;}.cls-17{fill:gray;}.cls-18{font-size:6.98px;}</style><clipPath id="clip-path" transform="translate(-23.02 -1.13)"><rect class="cls-1" width="396.86" height="164.99"/></clipPath></defs><title>Asset 1</title><g id="Layer_2" data-name="Layer 2"><g id="Layer_1-2" data-name="Layer 1"><line class="cls-2" x1="11.37" y1="20.06" x2="133.49" y2="20.06"/><line class="cls-2" x1="11.37" y1="34.47" x2="133.49" y2="34.47"/><line class="cls-2" x1="11.37" y1="48.89" x2="133.49" y2="48.89"/><line class="cls-2" x1="11.37" y1="63.31" x2="133.49" y2="63.31"/><line class="cls-2" x1="11.37" y1="77.73" x2="133.49" y2="77.73"/><line class="cls-2" x1="11.37" y1="92.15" x2="133.49" y2="92.15"/><line class="cls-2" x1="11.37" y1="106.57" x2="133.49" y2="106.57"/><line class="cls-2" x1="11.37" y1="120.99" x2="133.49" y2="120.99"/><line class="cls-2" x1="11.37" y1="135.41" x2="133.49" y2="135.41"/><g class="cls-3"><rect class="cls-4" x="22.12" y="13.28" width="30.1" height="27.73" rx="5.55" ry="5.55"/><rect class="cls-5" x="22.12" y="13.28" width="30.1" height="27.73" rx="5.55" ry="5.55"/></g><text class="cls-6" transform="translate(26.69 30.14)">SU(4)</text><g class="cls-3"><rect class="cls-4" x="22.12" y="42.49" width="30.1" height="27.73" rx="5.55" ry="5.55"/><rect class="cls-5" x="22.12" y="42.49" width="30.1" height="27.73" rx="5.55" ry="5.55"/></g><text class="cls-6" transform="translate(26.69 59.35)">SU(4)</text><g class="cls-3"><rect class="cls-4" x="22.12" y="71.69" width="30.1" height="27.73" rx="5.55" ry="5.55"/><rect class="cls-5" x="22.12" y="71.69" width="30.1" height="27.73" rx="5.55" ry="5.55"/></g><text class="cls-6" transform="translate(26.69 88.55)">SU(4)</text><g class="cls-3"><rect class="cls-4" x="22.12" y="100.9" width="30.1" height="27.73" rx="5.55" ry="5.55"/><rect class="cls-5" x="22.12" y="100.9" width="30.1" height="27.73" rx="5.55" ry="5.55"/></g><text class="cls-6" transform="translate(26.69 117.76)">SU(4)</text><g class="cls-3"><path class="cls-7" d="M85.48,34.77c0-3.06,2-5.55,4.48-5.55h15.32c2.47,0,4.47,2.49,4.47,5.55V51.41c0,3.06-2,5.55-4.47,5.55H90c-2.47,0-4.48-2.49-4.48-5.55Z" transform="translate(-23.02 -1.13)"/><path class="cls-5" d="M85.48,34.77c0-3.06,2-5.55,4.48-5.55h15.32c2.47,0,4.47,2.49,4.47,5.55V51.41c0,3.06-2,5.55-4.47,5.55H90c-2.47,0-4.48-2.49-4.48-5.55Z" transform="translate(-23.02 -1.13)"/><path class="cls-8" d="M85.8,17.44h0A2.68,2.68,0,0,1,88.7,15h24.14a2.68,2.68,0,0,1,2.9,2.4V68.9a2.68,2.68,0,0,1-2.9,2.4H88.7a2.68,2.68,0,0,1-2.9-2.4V61.72a2.68,2.68,0,0,1,2.9-2.4h23.1V27H88.7a2.68,2.68,0,0,1-2.9-2.4Z" transform="translate(-23.02 -1.13)"/><path class="cls-5" d="M85.8,17.44h0A2.68,2.68,0,0,1,88.7,15h24.14a2.68,2.68,0,0,1,2.9,2.4V68.9a2.68,2.68,0,0,1-2.9,2.4H88.7a2.68,2.68,0,0,1-2.9-2.4V61.72a2.68,2.68,0,0,1,2.9-2.4h23.1V27H88.7a2.68,2.68,0,0,1-2.9-2.4Z" transform="translate(-23.02 -1.13)"/></g><text class="cls-6" transform="translate(69.09 22.72)">SU(4)</text><text class="cls-6" transform="translate(64.71 44.33)">SU(4)</text><text class="cls-9" transform="translate(67.64 95.21)">SU(2)</text><g class="cls-3"><path class="cls-10" d="M115.74,89.22h0a2.68,2.68,0,0,0-2.9-2.4H88.7a2.68,2.68,0,0,0-2.9,2.4v51.46a2.69,2.69,0,0,0,2.9,2.4h24.14a2.69,2.69,0,0,0,2.9-2.4V133.5a2.68,2.68,0,0,0-2.9-2.4H89.74V98.8h23.1a2.69,2.69,0,0,0,2.9-2.4Z" transform="translate(-23.02 -1.13)"/><path class="cls-5" d="M115.74,89.22h0a2.68,2.68,0,0,0-2.9-2.4H88.7a2.68,2.68,0,0,0-2.9,2.4v51.46a2.69,2.69,0,0,0,2.9,2.4h24.14a2.69,2.69,0,0,0,2.9-2.4V133.5a2.68,2.68,0,0,0-2.9-2.4H89.74V98.8h23.1a2.69,2.69,0,0,0,2.9-2.4Z" transform="translate(-23.02 -1.13)"/><path class="cls-11" d="M91.47,106.47c0-3.06,2-5.55,4.47-5.55h15.33c2.47,0,4.47,2.49,4.47,5.55v16.64c0,3.06-2,5.55-4.47,5.55H95.94c-2.47,0-4.47-2.49-4.47-5.55Z" transform="translate(-23.02 -1.13)"/><path class="cls-5" d="M91.47,106.47c0-3.06,2-5.55,4.47-5.55h15.33c2.47,0,4.47,2.49,4.47,5.55v16.64c0,3.06-2,5.55-4.47,5.55H95.94c-2.47,0-4.47-2.49-4.47-5.55Z" transform="translate(-23.02 -1.13)"/></g><text class="cls-6" transform="translate(70.7 116.02)">SU(4)</text><text class="cls-6" transform="translate(69.1 94.84)">SU(4)</text><g class="cls-3"><path class="cls-4" d="M65.33,71.9h25a2.4,2.4,0,0,1,2.4,2.4v7.18a2.4,2.4,0,0,1-2.4,2.4h-25a2.39,2.39,0,0,1-2.39-2.39V74.3A2.39,2.39,0,0,1,65.33,71.9Z"/><path class="cls-5" d="M65.33,71.9h25a2.4,2.4,0,0,1,2.4,2.4v7.18a2.4,2.4,0,0,1-2.4,2.4h-25a2.39,2.39,0,0,1-2.39-2.39V74.3A2.39,2.39,0,0,1,65.33,71.9Z"/><path class="cls-7" d="M24.83,130.52h25a2.4,2.4,0,0,1,2.4,2.4v7.19a2.4,2.4,0,0,1-2.4,2.4h-25a2.39,2.39,0,0,1-2.39-2.39v-7.19A2.4,2.4,0,0,1,24.83,130.52Z"/><path class="cls-4" d="M24.83,130.52h25a2.4,2.4,0,0,1,2.4,2.4v7.19a2.4,2.4,0,0,1-2.4,2.4h-25a2.39,2.39,0,0,1-2.39-2.39v-7.19A2.4,2.4,0,0,1,24.83,130.52Z"/><path class="cls-12" d="M24.83,130.52h25a2.4,2.4,0,0,1,2.4,2.4v7.19a2.4,2.4,0,0,1-2.4,2.4h-25a2.39,2.39,0,0,1-2.39-2.39v-7.19A2.4,2.4,0,0,1,24.83,130.52Z"/></g><text class="cls-6" transform="translate(69.09 80.81)">SU(2)</text><text class="cls-6" transform="translate(28.72 139.02)">SU(2)</text><g class="cls-3"><line class="cls-13" x1="17.4" y1="6.5" x2="17.4" y2="143.76"/><line class="cls-13" x1="57.42" y1="6.5" x2="57.42" y2="143.76"/><line class="cls-13" x1="97.61" y1="6.5" x2="97.61" y2="143.76"/><text class="cls-6" transform="translate(26.54 7.45)">step 1</text><text class="cls-6" transform="translate(65.78 7.45)">step 2</text><rect class="cls-4" x="110.91" y="117.84" width="6.14" height="22.92" rx="1.23" ry="1.23"/><rect class="cls-5" x="110.91" y="117.84" width="6.14" height="22.92" rx="1.23" ry="1.23"/><rect class="cls-14" x="120.52" y="102.7" width="6.14" height="22.92" rx="1.23" ry="1.23"/><rect class="cls-5" x="120.52" y="102.7" width="6.14" height="22.92" rx="1.23" ry="1.23"/><rect class="cls-4" x="110.97" y="88.92" width="6.14" height="22.92" rx="1.23" ry="1.23"/><rect class="cls-5" x="110.97" y="88.92" width="6.14" height="22.92" rx="1.23" ry="1.23"/><rect class="cls-11" x="101.29" y="102.7" width="6.14" height="22.92" rx="1.23" ry="1.23"/><rect class="cls-5" x="101.29" y="102.7" width="6.14" height="22.92" rx="1.23" ry="1.23"/><rect class="cls-4" x="110.91" y="44.44" width="6.14" height="22.92" rx="1.23" ry="1.23"/><rect class="cls-5" x="110.91" y="44.44" width="6.14" height="22.92" rx="1.23" ry="1.23"/><rect class="cls-15" x="120.52" y="29.84" width="6.14" height="22.92" rx="1.23" ry="1.23"/><rect class="cls-5" x="120.52" y="29.84" width="6.14" height="22.92" rx="1.23" ry="1.23"/><rect class="cls-4" x="110.97" y="15.51" width="6.14" height="22.92" rx="1.23" ry="1.23"/><rect class="cls-5" x="110.97" y="15.51" width="6.14" height="22.92" rx="1.23" ry="1.23"/><rect class="cls-7" x="101.29" y="29.84" width="6.14" height="22.92" rx="1.23" ry="1.23"/><rect class="cls-5" x="101.29" y="29.84" width="6.14" height="22.92" rx="1.23" ry="1.23"/><path class="cls-4" d="M102.58,71.9h25a2.4,2.4,0,0,1,2.4,2.4v7.18a2.4,2.4,0,0,1-2.4,2.4h-25a2.39,2.39,0,0,1-2.39-2.39V74.3A2.39,2.39,0,0,1,102.58,71.9Z"/><path class="cls-5" d="M102.58,71.9h25a2.4,2.4,0,0,1,2.4,2.4v7.18a2.4,2.4,0,0,1-2.4,2.4h-25a2.39,2.39,0,0,1-2.39-2.39V74.3A2.39,2.39,0,0,1,102.58,71.9Z"/></g><text class="cls-6" transform="translate(106.31 80.81)">SU(2)</text><text class="cls-16" transform="translate(112.19 20.19) rotate(90)">S</text><text class="cls-16" transform="translate(112.19 22.78) rotate(90)">W</text><text class="cls-16" transform="translate(112.19 27) rotate(90)">AP</text><text class="cls-16" transform="translate(112.19 49.25) rotate(90)">S</text><text class="cls-16" transform="translate(112.19 51.84) rotate(90)">W</text><text class="cls-16" transform="translate(112.19 56.06) rotate(90)">AP</text><text class="cls-16" transform="translate(112.19 93.46) rotate(90)">S</text><text class="cls-16" transform="translate(112.19 96.05) rotate(90)">W</text><text class="cls-16" transform="translate(112.19 100.26) rotate(90)">AP</text><text class="cls-16" transform="translate(112.19 122.93) rotate(90)">S</text><text class="cls-16" transform="translate(112.19 125.52) rotate(90)">W</text><text class="cls-16" transform="translate(112.19 129.74) rotate(90)">AP</text><g class="cls-3"><text class="cls-17" transform="translate(102.61 7.45)">step 2</text></g><text class="cls-6" transform="translate(0 20.92)">q</text><text class="cls-18" transform="translate(5.58 23.4)">1</text><text class="cls-6" transform="translate(0 35.36)">q</text><text class="cls-18" transform="translate(5.58 37.83)">2</text><text class="cls-6" transform="translate(0 49.75)">q</text><text class="cls-18" transform="translate(5.58 52.22)">3</text><text class="cls-6" transform="translate(0 64.23)">q</text><text class="cls-18" transform="translate(5.58 66.7)">4</text><text class="cls-6" transform="translate(0 78.62)">q</text><text class="cls-18" transform="translate(5.58 81.1)">5</text><text class="cls-6" transform="translate(0 93.06)">q</text><text class="cls-18" transform="translate(5.58 95.53)">6</text><text class="cls-6" transform="translate(0 107.53)">q</text><text class="cls-18" transform="translate(5.58 110)">7</text><text class="cls-6" transform="translate(0 121.92)">q</text><text class="cls-18" transform="translate(5.58 124.39)">8</text><text class="cls-6" transform="translate(0 136.35)">q</text><text class="cls-18" transform="translate(5.58 138.83)">9</text><text class="cls-6" transform="translate(135.9 20.92)">q</text><text class="cls-18" transform="translate(141.48 23.4)">2</text><text class="cls-6" transform="translate(135.9 35.36)">q</text><text class="cls-18" transform="translate(141.48 37.83)">1</text><text class="cls-6" transform="translate(135.9 49.75)">q</text><text class="cls-18" transform="translate(141.48 52.22)">4</text><text class="cls-6" transform="translate(135.9 64.23)">q</text><text class="cls-18" transform="translate(141.48 66.7)">3</text><text class="cls-6" transform="translate(135.9 78.62)">q</text><text class="cls-18" transform="translate(141.48 81.1)">6</text><text class="cls-6" transform="translate(135.9 93.06)">q</text><text class="cls-18" transform="translate(141.48 95.53)">5</text><text class="cls-6" transform="translate(135.9 107.53)">q</text><text class="cls-18" transform="translate(141.48 110)">8</text><text class="cls-6" transform="translate(135.9 121.92)">q</text><text class="cls-18" transform="translate(141.48 124.39)">7</text><text class="cls-6" transform="translate(135.9 136.35)">q</text><text class="cls-18" transform="translate(141.48 138.83)">9</text></g></g></svg>